<svg width="40" height="40" viewBox="0 0 40 40" fill="none" xmlns="http://www.w3.org/2000/svg">
<rect x="0.5" y="0.5" width="39" height="39" rx="7.5" fill="url(#paint0_linear_208_1336)"/>
<rect x="0.5" y="0.5" width="39" height="39" rx="7.5" stroke="#BFCBCB"/>
<path fill-rule="evenodd" clip-rule="evenodd" d="M20.7423 25.5941C20.5737 25.534 20.4654 25.3949 20.4654 25.2425V24.289C20.4654 24.1791 20.5205 24.0736 20.6199 24.0033L24.8548 20.8555H12.1313C11.8758 20.8555 11.6681 20.6841 11.6681 20.4702V19.5167C11.6681 19.3057 11.8758 19.1314 12.1313 19.1314H24.8548L20.6181 15.9851C20.5205 15.9118 20.4654 15.8078 20.4654 15.6994V14.7444C20.4654 14.592 20.5719 14.4543 20.7406 14.3928L20.9376 14.3723C21.0707 14.3723 21.1648 14.4001 21.2429 14.4617L28.1846 19.71C28.2804 19.7847 28.3319 19.8873 28.3319 19.9942C28.3319 20.1011 28.2804 20.2037 28.1846 20.2769L21.2429 25.5267C21.1577 25.5912 21.0476 25.6278 20.9305 25.6278L20.7423 25.5941Z" fill="white"/>
<defs>
<linearGradient id="paint0_linear_208_1336" x1="2.2706e-09" y1="15" x2="40.0013" y2="14.9271" gradientUnits="userSpaceOnUse">
<stop stop-color="#1D4D90"/>
<stop offset="1" stop-color="#48CEEF"/>
</linearGradient>
</defs>
</svg>
